<svg version="1.0" id="Layer_1" xmlns="http://www.w3.org/2000/svg" xmlns:xlink="http://www.w3.org/1999/xlink" x="0px" y="0px" width="100px" height="100px" viewBox="0 0 100 100" enable-background="new 0 0 100 100" xml:space="preserve">
<path d="M50,10c-14.727,0-26.667,11.94-26.667,26.667v26.665C23.333,78.059,35.276,90,50,90c14.727,0,26.667-11.941,26.667-26.668
	V36.667C76.667,21.941,64.724,10,50,10z M54.011,17.071c2.402,0.488,4.635,1.423,6.637,2.689
	c-4.492,4.251-7.314,10.238-7.314,16.908h-6.667C46.666,29.164,49.45,22.328,54.011,17.071z M45.664,17.152
	C42.095,22.807,40,29.486,40,36.667H30C30,27.113,36.705,19.135,45.664,17.152z M34.326,75.729C31.624,72.324,30,68.02,30,63.332h10
	C40,68.301,37.781,72.695,34.326,75.729z M45.989,82.93c-2.4-0.488-4.634-1.42-6.638-2.689c4.491-4.252,7.314-10.234,7.314-16.908
	h6.667C53.333,70.84,50.55,77.676,45.989,82.93z M54.336,82.852C57.907,77.193,60,70.514,60,63.332h10
	C70,72.891,63.294,80.865,54.336,82.852z M70,56.666H30V43.334h40V56.666z M60,36.667c0-4.968,2.22-9.362,5.674-12.396
	C68.376,27.68,70,31.98,70,36.667H60z" id="id_101" style="fill: rgb(255, 255, 255);"></path>
</svg>